<?xml version="1.0" encoding="iso-8859-1"?>
<!-- Generator: Adobe Illustrator 19.0.0, SVG Export Plug-In . SVG Version: 6.00 Build 0)  -->
<svg xmlns="http://www.w3.org/2000/svg" xmlns:xlink="http://www.w3.org/1999/xlink" version="1.1" id="Capa_1" x="0px" y="0px" viewBox="0 0 54 54" style="enable-background:new 0 0 54 54;" xml:space="preserve" width="512px" height="512px">
<g>
	<g>
		<path d="M1,18h24c0.552,0,1-0.448,1-1V5c0-0.552-0.448-1-1-1H1C0.448,4,0,4.448,0,5v12C0,17.552,0.448,18,1,18z M2,6h22v10H2V6z" fill="#e82729"/>
		<path d="M25,36H1c-0.552,0-1,0.448-1,1v12c0,0.552,0.448,1,1,1h24c0.552,0,1-0.448,1-1V37C26,36.448,25.552,36,25,36z M24,48H2V38    h22V48z" fill="#e82729"/>
		<path d="M53,4H29c-0.552,0-1,0.448-1,1v12c0,0.552,0.448,1,1,1h24c0.552,0,1-0.448,1-1V5C54,4.448,53.552,4,53,4z M52,16H30V6h22    V16z" fill="#e82729"/>
		<path d="M53,36H29c-0.552,0-1,0.448-1,1v12c0,0.552,0.448,1,1,1h24c0.552,0,1-0.448,1-1V37C54,36.448,53.552,36,53,36z M52,48H30    V38h22V48z" fill="#e82729"/>
		<path d="M14,21v12c0,0.552,0.448,1,1,1h24c0.552,0,1-0.448,1-1V21c0-0.552-0.448-1-1-1H15C14.448,20,14,20.448,14,21z M16,22h22    v10H16V22z" fill="#e82729"/>
		<path d="M1,34h10c0.552,0,1-0.448,1-1V21c0-0.552-0.448-1-1-1H1c-0.552,0-1,0.448-1,1v12C0,33.552,0.448,34,1,34z M2,22h8v10H2V22    z" fill="#e82729"/>
		<path d="M53,20H43c-0.552,0-1,0.448-1,1v12c0,0.552,0.448,1,1,1h10c0.552,0,1-0.448,1-1V21C54,20.448,53.552,20,53,20z M52,32h-8    V22h8V32z" fill="#e82729"/>
	</g>
</g>
<g>
</g>
<g>
</g>
<g>
</g>
<g>
</g>
<g>
</g>
<g>
</g>
<g>
</g>
<g>
</g>
<g>
</g>
<g>
</g>
<g>
</g>
<g>
</g>
<g>
</g>
<g>
</g>
<g>
</g>
</svg>
