<?xml version="1.0" encoding="iso-8859-1"?>
<!-- Generator: Adobe Illustrator 19.0.0, SVG Export Plug-In . SVG Version: 6.00 Build 0)  -->
<svg xmlns="http://www.w3.org/2000/svg" xmlns:xlink="http://www.w3.org/1999/xlink" version="1.1" id="Layer_1" x="0px" y="0px" viewBox="0 0 512.001 512.001" style="enable-background:new 0 0 512.001 512.001;" xml:space="preserve" width="512px" height="512px">
<g>
	<g>
		<g>
			<path d="M353.727,252.829v10.654c0,4.143,3.358,7.5,7.5,7.5c4.142,0,7.5-3.357,7.5-7.5v-10.654c0-4.143-3.358-7.5-7.5-7.5     C357.085,245.329,353.727,248.686,353.727,252.829z" fill="#e82729"/>
			<path d="M470.248,229.138c0-1.852-0.53-3.653-1.535-5.214l-38.659-59.96c-1.8-2.787-4.855-4.451-8.173-4.451h-57.25     c-5.365,0-9.729,4.364-9.729,9.729v59.896c0,5.364,4.364,9.729,9.729,9.729h95.887     C465.884,238.866,470.248,234.502,470.248,229.138z M369.903,223.866v-49.354h49.106l31.82,49.354H369.903z" fill="#e82729"/>
			<path d="M412.155,326.847c-15.033,0-27.263,12.23-27.263,27.264c0,15.032,12.23,27.263,27.263,27.263     c15.033,0,27.263-12.23,27.263-27.263C439.418,339.077,427.188,326.847,412.155,326.847z M412.155,366.373     c-6.762,0-12.263-5.501-12.263-12.263c0-6.763,5.501-12.264,12.263-12.264c6.762,0,12.263,5.501,12.263,12.264     C424.418,360.872,418.917,366.373,412.155,366.373z" fill="#e82729"/>
			<path d="M104.47,326.847c-15.033,0-27.263,12.23-27.263,27.264c0,15.032,12.23,27.263,27.263,27.263     c15.033,0,27.263-12.23,27.263-27.263C131.732,339.077,119.502,326.847,104.47,326.847z M104.47,366.373     c-6.762,0-12.263-5.501-12.263-12.263c0-6.763,5.501-12.264,12.263-12.264c6.762,0,12.263,5.501,12.263,12.264     C116.732,360.872,111.231,366.373,104.47,366.373z" fill="#e82729"/>
			<path d="M496.235,314.537v-23.075c0-4.143-3.358-7.5-7.5-7.5c-4.142,0-7.5,3.357-7.5,7.5v22.745h-31.393     c-9.844-9.303-23.107-15.025-37.688-15.025s-27.844,5.722-37.688,15.025h-30.551V152.3c0-2.081,1.693-3.773,3.773-3.773h83.427     c1.288,0,2.474,0.646,3.171,1.729l46.344,71.881c0.394,0.611,0.603,1.318,0.603,2.045v36.761c0,4.143,3.358,7.5,7.5,7.5     c4.142,0,7.5-3.357,7.5-7.5v-36.761c0-3.615-1.035-7.132-2.995-10.173l-46.345-71.882c-3.473-5.385-9.371-8.6-15.778-8.6h-83.427     c-10.352,0-18.773,8.422-18.773,18.773v25.551h-10.629c-6.67,0-12.097,5.427-12.097,12.098v13.22l-11.582-16.959     c-23.242-34.033-54.858-58.531-90.633-71.806c-0.053-0.02-0.106-0.04-0.159-0.059c-3.001-1.111-6.032-2.142-9.089-3.093     c-0.228-0.071-0.455-0.142-0.683-0.212c-3-0.921-6.026-1.764-9.074-2.53c-0.188-0.047-0.375-0.094-0.563-0.14     c-27.001-6.693-55.803-7.293-84.791-1.128c-4.051,0.862-6.637,4.845-5.775,8.896c0.862,4.051,4.839,6.64,8.896,5.775     c12.285-2.613,24.535-3.9,36.604-3.932L91.439,283.297c-9.875-6.957-19.135-15.036-27.625-24.188     c-0.173-0.187-0.342-0.379-0.515-0.567c-0.898-0.977-1.787-1.967-2.668-2.967c-0.395-0.449-0.787-0.901-1.178-1.354     c-0.709-0.822-1.411-1.653-2.108-2.49c-0.353-0.424-0.71-0.844-1.059-1.272c-0.967-1.184-1.923-2.383-2.866-3.597     c-0.312-0.402-0.618-0.81-0.927-1.215c-0.721-0.943-1.435-1.894-2.141-2.856c-0.305-0.416-0.611-0.831-0.913-1.25     c-0.96-1.33-1.911-2.67-2.842-4.033l-11.609-16.999c-0.001-0.001-0.001-0.001-0.002-0.002l-9.88-14.467     c-2.644-3.872-3.209-9.406-1.476-14.442l14.758-42.868c1.734-5.037,5.586-9.05,10.053-10.474l25.777-8.214     c3.947-1.257,6.127-5.476,4.869-9.423c-1.258-3.946-5.478-6.124-9.423-4.868l-25.777,8.214     c-9.029,2.877-16.387,10.31-19.682,19.882L9.448,186.715c-3.295,9.572-2.072,19.959,3.272,27.784l8.575,12.556v87.152h-2.06     C8.629,314.207,0,322.836,0,333.443v5.14c0,10.606,8.629,19.236,19.236,19.236h30.445v-0.001     c1.915,28.563,25.749,51.22,54.789,51.22c29.04,0,52.873-22.657,54.789-51.22v0.001h198.108v-0.001     c1.915,28.563,25.749,51.22,54.789,51.22c29.04,0,52.874-22.657,54.789-51.22v0.001h25.82c10.606,0,19.236-8.63,19.236-19.236     v-5.14C512,324.022,505.188,316.178,496.235,314.537z M36.295,248.961c0.2,0.282,0.412,0.553,0.613,0.834     c0.869,1.213,1.753,2.408,2.644,3.595c0.386,0.514,0.766,1.034,1.157,1.544c4.109,5.371,8.436,10.468,12.96,15.291     c0.012,0.013,0.024,0.026,0.036,0.039v43.943h-17.41V248.961z M50.714,342.82H19.236C16.9,342.819,15,340.919,15,338.583v-5.14     c0-2.336,1.9-4.236,4.236-4.236h36.3C53.364,333.458,51.72,338.022,50.714,342.82z M321.189,234.653c0-0.074,0-0.147,0-0.221     V192.85h7.727v121.356h-7.727V234.653z M306.189,283.748v30.459h-40.071l18.811-5.994c9.029-2.878,16.387-10.311,19.682-19.883     L306.189,283.748z M282.221,194.669l21.491,31.468c2.645,3.872,3.21,9.406,1.476,14.443l-14.759,42.867     c-1.733,5.037-5.586,9.05-10.053,10.474l-36.308,11.57c-18.383,5.857-36.883,8.698-55.014,8.697     c-3.594,0-7.172-0.116-10.732-0.338l49.601-171.176C248.857,155.448,267.388,172.95,282.221,194.669z M154.771,118.629     c20.91,1.829,41.067,7.483,59.68,16.639l-51.276,176.958c-20.647-3.157-40.437-10.091-58.556-20.518L154.771,118.629z      M68.706,284.619c7.01,6.018,14.382,11.452,22.055,16.295c-8.264,2.131-15.771,6.153-22.055,11.559V284.619z M104.47,394.038     c-22.017,0-39.928-17.911-39.928-39.928c0-22.017,17.912-39.928,39.928-39.928c22.016,0,39.928,17.911,39.928,39.928     C144.398,376.127,126.486,394.038,104.47,394.038z M358.398,342.82H158.225c-1.006-4.798-2.65-9.362-4.822-13.613h209.818     C361.048,333.458,359.405,338.022,358.398,342.82z M412.155,394.038c-22.017,0-39.928-17.911-39.928-39.928     c0-22.017,17.912-39.928,39.928-39.928c22.016,0,39.928,17.911,39.928,39.928C452.083,376.127,434.171,394.038,412.155,394.038z      M492.764,342.819h-26.853c-1.007-4.798-2.65-9.362-4.823-13.613h27.646h4.029c2.335,0,4.236,1.9,4.236,4.236v5.141H497     C497,340.919,495.1,342.819,492.764,342.819z" fill="#e82729"/>
		</g>
	</g>
</g>
<g>
</g>
<g>
</g>
<g>
</g>
<g>
</g>
<g>
</g>
<g>
</g>
<g>
</g>
<g>
</g>
<g>
</g>
<g>
</g>
<g>
</g>
<g>
</g>
<g>
</g>
<g>
</g>
<g>
</g>
</svg>
