<?xml version="1.0" encoding="iso-8859-1"?>
<!-- Generator: Adobe Illustrator 19.0.0, SVG Export Plug-In . SVG Version: 6.00 Build 0)  -->
<svg xmlns="http://www.w3.org/2000/svg" xmlns:xlink="http://www.w3.org/1999/xlink" version="1.1" id="Layer_1" x="0px" y="0px" viewBox="0 0 512.005 512.005" style="enable-background:new 0 0 512.005 512.005;" xml:space="preserve" width="512px" height="512px">
<g>
	<g>
		<path d="M106.667,0.003C46.848,0.003,0,32.813,0,74.669c0,41.856,46.848,74.667,106.667,74.667s106.667-32.811,106.667-74.667    C213.333,32.813,166.485,0.003,106.667,0.003z M106.667,128.003c-46.251,0-85.333-24.427-85.333-53.333    s39.083-53.333,85.333-53.333S192,45.763,192,74.669S152.917,128.003,106.667,128.003z" fill="#e82729"/>
	</g>
</g>
<g>
	<g>
		<path d="M106.667,42.669c-23.915,0-42.667,14.059-42.667,32s18.752,32,42.667,32s42.667-14.059,42.667-32    S130.581,42.669,106.667,42.669z M106.667,85.336c-12.843,0-21.333-6.421-21.333-10.667c0-4.245,8.491-10.667,21.333-10.667    c12.843,0,21.333,6.421,21.333,10.667C128,78.915,119.509,85.336,106.667,85.336z" fill="#e82729"/>
	</g>
</g>
<g>
	<g>
		<path d="M202.667,64.003c-5.888,0-10.667,4.779-10.667,10.667v362.667c0,28.907-39.083,53.333-85.333,53.333    s-85.333-24.427-85.333-53.333V74.669c0-5.888-4.779-10.667-10.667-10.667S0,68.781,0,74.669v362.667    c0,41.856,46.848,74.667,106.667,74.667s106.667-32.811,106.667-74.667V74.669C213.333,68.781,208.555,64.003,202.667,64.003z" fill="#e82729"/>
	</g>
</g>
<g>
	<g>
		<path d="M508.885,344.451c-4.16-4.16-10.923-4.16-15.083,0l-82.219,82.219H202.667c-5.888,0-10.667,4.779-10.667,10.667    c0,5.888,4.779,10.667,10.667,10.667H416c2.837,0,5.547-1.131,7.552-3.136l85.333-85.333    C513.045,355.373,513.045,348.611,508.885,344.451z" fill="#e82729"/>
	</g>
</g>
<g>
	<g>
		<path d="M501.333,0.003H106.667C100.779,0.003,96,4.781,96,10.669s4.779,10.667,10.667,10.667h384v320H416    c-5.888,0-10.667,4.779-10.667,10.667v85.333c0,5.888,4.779,10.667,10.667,10.667c5.888,0,10.667-4.779,10.667-10.667v-74.667    h74.667c5.888,0,10.667-4.779,10.667-10.667V10.669C512,4.781,507.221,0.003,501.333,0.003z" fill="#e82729"/>
	</g>
</g>
<g>
</g>
<g>
</g>
<g>
</g>
<g>
</g>
<g>
</g>
<g>
</g>
<g>
</g>
<g>
</g>
<g>
</g>
<g>
</g>
<g>
</g>
<g>
</g>
<g>
</g>
<g>
</g>
<g>
</g>
</svg>
